<?xml version="1.0" encoding="iso-8859-1"?>
<!-- Generator: Adobe Illustrator 19.0.0, SVG Export Plug-In . SVG Version: 6.00 Build 0)  -->
<svg version="1.1" id="Capa_1" xmlns="http://www.w3.org/2000/svg" xmlns:xlink="http://www.w3.org/1999/xlink" x="0px" y="0px"
	 viewBox="0 0 496 496" style="enable-background:new 0 0 496 496;" xml:space="preserve">
<g>
	<g>
		<g>
			<path d="M248,168v48h32v120h48V168H248z M312,320h-16V200h-32v-16h48V320z"/>
			<path d="M488,72c0-17.648-14.352-32-32-32h-32V24c0-13.232-10.768-24-24-24s-24,10.768-24,24v16H200V24c0-13.232-10.768-24-24-24
				s-24,10.768-24,24v16h-32c-17.648,0-32,14.352-32,32v136c-22.056,0-40,17.944-40,40c0,8.998,2.988,17.31,8.022,24H8v64h16v160h80
				h64h80v-56h240V72z M392,24c0-4.408,3.584-8,8-8c4.416,0,8,3.592,8,8v48c0,4.408-3.584,8-8,8c-4.416,0-8-3.592-8-8V24z M168,24
				c0-4.408,3.584-8,8-8s8,3.592,8,8v48c0,4.408-3.584,8-8,8s-8-3.592-8-8V24z M120,56h32v16c0,13.232,10.768,24,24,24
				s24-10.768,24-24V56h176v16c0,13.232,10.768,24,24,24s24-10.768,24-24V56h32c8.824,0,16,7.176,16,16v40H104V72
				C104,63.176,111.176,56,120,56z M88,224c19.331,0,35.501,13.784,39.202,32.039C116.943,245.997,102.966,240,88,240
				c-8.768,0-17.17,2.918-23.999,8.036c0-0.012-0.001-0.024-0.001-0.036C64,234.768,74.768,224,88,224z M184,272h-32.001
				c7.427-9.874,19.209-16,32.001-16c6.87,0,13.364,2.979,17.876,7.991C197.478,268.902,191.094,272,184,272z M207.999,248.036
				C201.17,242.918,192.768,240,184,240c-14.966,0-28.943,5.997-39.202,16.039C148.499,237.784,164.669,224,184,224
				c13.232,0,24,10.768,24,24C208,248.012,207.999,248.024,207.999,248.036z M70.124,263.991C74.636,258.979,81.13,256,88,256
				c12.792,0,24.575,6.126,32.001,16H88C80.906,272,74.522,268.902,70.124,263.991z M24,288h64h40h16h40h64v32H24V288z M40,480V336
				h64v144H40z M168,480V368h-16v112h-32V336h32v16h16v-16h64v144H168z M248,336h16v-64h-48.022c5.034-6.69,8.022-15.002,8.022-24
				c0-22.056-17.944-40-40-40c-20.346,0-38.192,10.913-48,27.192c-7.128-11.831-18.505-20.818-32-24.85V128h368v200h-96v96H248V336z
				 M460.717,344L392,412.717V344H460.717z M403.344,424L472,355.344V424H403.344z"/>
		</g>
	</g>
</g>
<g>
</g>
<g>
</g>
<g>
</g>
<g>
</g>
<g>
</g>
<g>
</g>
<g>
</g>
<g>
</g>
<g>
</g>
<g>
</g>
<g>
</g>
<g>
</g>
<g>
</g>
<g>
</g>
<g>
</g>
</svg>
