<?xml version="1.0" encoding="iso-8859-1"?>
<!-- Generator: Adobe Illustrator 19.0.0, SVG Export Plug-In . SVG Version: 6.00 Build 0)  -->
<svg version="1.1" id="Layer_1" xmlns="http://www.w3.org/2000/svg" xmlns:xlink="http://www.w3.org/1999/xlink" x="0px" y="0px"
	 viewBox="0 0 512.001 512.001" style="enable-background:new 0 0 512.001 512.001;" xml:space="preserve">
<g>
	<g>
		<g>
			<polygon points="448.358,240.001 448.36,239.999 168.899,346.732 			"/>
			<path d="M511.972,200.384c0.048-0.732,0.012-1.467-0.102-2.194c-1.373-20.714-13.85-39.55-32.604-48.794L468.36,143.1V10.001
				c0-5.523-4.478-10-10-10H53.64c-5.522,0-10,4.477-10,10v133.097l-14.34,8.28c-16.616,9.621-27.421,26.913-28.983,45.905
				c-0.295,1.169-0.379,2.378-0.246,3.57c-0.008,0.068-0.017,0.135-0.022,0.203C0.019,201.367,0,201.681,0,201.999V482
				c0,5.357,1.418,10.385,3.888,14.743c0.011,0.018,0.021,0.037,0.031,0.055C9.085,505.867,18.836,512,29.999,512h452.003
				c11.161,0,20.911-6.131,26.077-15.199c0.013-0.021,0.024-0.041,0.035-0.061c2.47-4.357,3.887-9.384,3.887-14.74V201.999
				C512.001,201.46,511.987,200.922,511.972,200.384z M468.361,166.194l1.202,0.695c0.209,0.12,0.422,0.233,0.639,0.338
				c11.646,5.645,19.46,16.398,21.347,28.876l-23.188,23.568V166.194z M63.64,20.001h384.72v219.998V240l-0.002,0.001
				L343.099,346.732h-174.2L63.64,239.999V20.001z M39.312,168.692l4.328-2.499v53.477l-23.064-23.443
				C22.333,184.792,29.173,174.561,39.312,168.692z M20,224.161l130.82,132.713L20,471.941V224.161z M482.002,492H29.999
				c-0.764,0-1.505-0.094-2.22-0.257l142.105-125.011h172.229l142.109,125.011C483.507,491.906,482.766,492,482.002,492z
				 M492.001,471.941L361.177,356.875L492.001,224.16V471.941z"/>
			<path d="M216.235,452.005h-0.237c-5.522,0-10,4.477-10,10s4.478,10,10,10h0.237c5.522,0,10-4.477,10-10
				S221.758,452.005,216.235,452.005z"/>
			<path d="M296.003,452.001h-51.038c-5.522,0-10,4.477-10,10s4.478,10,10,10h51.038c5.522,0,10-4.477,10-10
				S301.525,452.001,296.003,452.001z"/>
			<path d="M408.12,70.001h0.24c5.522,0,10-4.477,10-10s-4.478-10-10-10h-0.24c-5.522,0-10,4.477-10,10
				C398.12,65.524,402.598,70.001,408.12,70.001z"/>
			<path d="M328.355,69.997h51.038c5.522,0,10-4.477,10-10s-4.478-10-10-10h-51.038c-5.522,0-10,4.477-10,10
				S322.833,69.997,328.355,69.997z"/>
			<path d="M150.251,149.996H408.36c5.522,0,10-4.477,10-10c0-5.523-4.478-10-10-10H150.251c-5.523,0-10,4.477-10,10
				C140.251,145.519,144.729,149.996,150.251,149.996z"/>
			<path d="M103.643,189.994H408.36c5.522,0,10-4.477,10-10c0-5.523-4.478-10-10-10H103.643c-5.522,0-10,4.477-10,10
				C93.643,185.517,98.12,189.994,103.643,189.994z"/>
			<path d="M418.36,219.993c0-5.523-4.478-10-10-10H103.643c-5.522,0-10,4.477-10,10s4.477,10,10,10H408.36
				C413.882,229.993,418.36,225.516,418.36,219.993z"/>
			<path d="M201.736,289.992c0-5.523-4.477-10-10-10h-41.485c-5.523,0-10,4.477-10,10s4.477,10,10,10h41.485
				C197.259,299.992,201.736,295.515,201.736,289.992z"/>
		</g>
	</g>
</g>
<g>
</g>
<g>
</g>
<g>
</g>
<g>
</g>
<g>
</g>
<g>
</g>
<g>
</g>
<g>
</g>
<g>
</g>
<g>
</g>
<g>
</g>
<g>
</g>
<g>
</g>
<g>
</g>
<g>
</g>
</svg>
