<?xml version="1.0" encoding="iso-8859-1"?>
<!-- Generator: Adobe Illustrator 19.0.0, SVG Export Plug-In . SVG Version: 6.00 Build 0)  -->
<svg version="1.1" id="Capa_1" xmlns="http://www.w3.org/2000/svg" xmlns:xlink="http://www.w3.org/1999/xlink" x="0px" y="0px"
	 viewBox="0 0 337.2 337.2" style="enable-background:new 0 0 337.2 337.2;" xml:space="preserve">
<g>
	<g>
		<g>
			<path d="M293.2,21.2H44c-24.4,0-44,20-44,44v143.2c0,24.4,19.6,44.4,44,44.4h132v38.8c0,13.6,10.8,24.4,24.4,24.4h73.2
				c13.6,0,24.4-10.8,24.4-24.4v-39.2c22-2.4,39.2-21.2,39.2-44V65.2C337.2,40.8,317.2,21.2,293.2,21.2z M285.2,291.2
				c0,6.4-5.2,11.6-11.6,11.6h-73.2c-6.4,0-11.6-5.2-11.6-11.6v-68.4h96.4V291.2z M210.8,209.6v-24.4c0-13.6,11.6-24.8,26.4-24.8
				c14.4,0,26.4,11.2,26.4,24.8v24.4h-0.4H210.8z M324,208.4c0,15.6-11.2,28.4-26,30.8V216c0-3.6-2.8-6.4-6.4-6.4H276v-24.4
				c0-20.8-17.6-37.6-39.2-37.6c-21.6,0-39.2,16.8-39.2,37.6v24.4H182c-3.6,0-6.4,2.8-6.4,6.4v23.6h-132c-17.2,0-31.2-14-31.2-31.2
				v-86.8h0.4H324V208.4z M324,108.8H12.8v-22H324V108.8z M324,74H12.8v-8.8C12.8,48,26.8,34,44,34h248.8C310,34,324,48,324,65.2V74
				z"/>
			<path d="M44.8,214.8h102.8c3.6,0,6.4-2.8,6.4-6.4c0-3.6-2.8-6.4-6.4-6.4H44.8c-3.6,0-6.4,2.8-6.4,6.4
				C38.4,212,41.2,214.8,44.8,214.8z"/>
			<path d="M230.4,271.6V286c0,3.6,2.8,6.4,6.4,6.4c3.6,0,6.4-2.8,6.4-6.4v-14.4c8.4-2.8,14.4-10.4,14.4-19.6
				c0-11.6-9.2-20.8-20.8-20.8c-11.6,0-20.8,9.2-20.8,20.8C216,261.2,222,268.8,230.4,271.6z M236.8,244c4.4,0,8,3.6,8,8
				c0,4.4-3.6,8-8,8c-4.4,0-8-3.6-8-8C228.8,247.6,232.4,244,236.8,244z"/>
		</g>
	</g>
</g>
<g>
</g>
<g>
</g>
<g>
</g>
<g>
</g>
<g>
</g>
<g>
</g>
<g>
</g>
<g>
</g>
<g>
</g>
<g>
</g>
<g>
</g>
<g>
</g>
<g>
</g>
<g>
</g>
<g>
</g>
</svg>
