<?xml version="1.0" encoding="iso-8859-1"?>
<!-- Generator: Adobe Illustrator 19.0.0, SVG Export Plug-In . SVG Version: 6.00 Build 0)  -->
<svg version="1.1" id="Capa_1" xmlns="http://www.w3.org/2000/svg" xmlns:xlink="http://www.w3.org/1999/xlink" x="0px" y="0px"
	 viewBox="0 0 512 512" style="enable-background:new 0 0 512 512;" xml:space="preserve">
<g>
	<g>
		<path d="M458.772,0H136.364c-29.349,0-53.228,23.877-53.228,53.228v337.109H0v68.436C0,488.123,23.878,512,53.228,512h313.283
			v-0.025c0.339,0.006,0.674,0.025,1.014,0.025c29.349,0,53.228-23.877,53.228-53.228V137.885H512V53.228
			C512,23.877,488.122,0,458.772,0z M53.228,496.792c-20.965,0-38.02-17.055-38.02-38.02v-53.228h299.089v53.228
			c0,14.882,6.147,28.351,16.027,38.02H53.228z M405.545,53.228v405.545c0,20.965-17.055,38.02-38.02,38.02
			c-20.965,0-38.02-17.055-38.02-38.02v-68.436H98.345V53.228c0-20.965,17.055-38.02,38.02-38.02h285.192
			C411.681,24.876,405.545,38.348,405.545,53.228z M496.792,122.677h-76.04v-69.45c0-20.965,17.055-38.02,38.02-38.02
			c20.965,0,38.02,17.055,38.02,38.02V122.677z"/>
	</g>
</g>
<g>
	<g>
		<polygon points="271.208,420.753 271.208,435.96 283.881,435.96 283.881,448.634 299.089,448.634 299.089,420.753 		"/>
	</g>
</g>
<g>
	<g>
		<rect x="283.881" y="463.842" width="15.208" height="15.208"/>
	</g>
</g>
<g>
	<g>
		<rect x="240.792" y="420.753" width="15.208" height="15.208"/>
	</g>
</g>
<g>
	<g>
		<polygon points="466.376,69.45 466.376,92.261 443.564,92.261 443.564,107.469 481.584,107.469 481.584,69.45 		"/>
	</g>
</g>
<g>
	<g>
		<rect x="191.113" y="58.804" width="121.663" height="15.208"/>
	</g>
</g>
<g>
	<g>
		<rect x="130.281" y="109.497" width="243.327" height="15.208"/>
	</g>
</g>
<g>
	<g>
		<rect x="130.281" y="150.052" width="243.327" height="15.208"/>
	</g>
</g>
<g>
	<g>
		<rect x="130.281" y="190.606" width="243.327" height="15.208"/>
	</g>
</g>
<g>
	<g>
		<rect x="130.281" y="231.16" width="243.327" height="15.208"/>
	</g>
</g>
<g>
	<g>
		<rect x="206.321" y="271.715" width="15.208" height="15.208"/>
	</g>
</g>
<g>
	<g>
		<rect x="236.737" y="271.715" width="15.208" height="15.208"/>
	</g>
</g>
<g>
	<g>
		<rect x="130.281" y="271.715" width="60.832" height="15.208"/>
	</g>
</g>
<g>
	<g>
		<path d="M331.026,288.951c-23.76,0-43.089,19.329-43.089,43.089s19.329,43.089,43.089,43.089s43.089-19.329,43.089-43.089
			S354.786,288.951,331.026,288.951z M331.026,359.921c-15.373,0-27.881-12.507-27.881-27.881s12.508-27.881,27.881-27.881
			s27.881,12.507,27.881,27.881S346.399,359.921,331.026,359.921z"/>
	</g>
</g>
<g>
	<g>
		<polygon points="30.416,420.753 30.416,453.703 45.624,453.703 45.624,435.96 77.56,435.96 77.56,420.753 		"/>
	</g>
</g>
<g>
	<g>
		<rect x="123.184" y="420.753" width="15.208" height="15.208"/>
	</g>
</g>
<g>
	<g>
		<rect x="92.768" y="420.753" width="15.208" height="15.208"/>
	</g>
</g>
<g>
</g>
<g>
</g>
<g>
</g>
<g>
</g>
<g>
</g>
<g>
</g>
<g>
</g>
<g>
</g>
<g>
</g>
<g>
</g>
<g>
</g>
<g>
</g>
<g>
</g>
<g>
</g>
<g>
</g>
</svg>
